<mxfile host="app.diagrams.net" agent="Mozilla/5.0 (Windows NT 10.0; Win64; x64; rv:131.0) Gecko/20100101 Firefox/131.0" version="24.7.17">
  <diagram name="Page-1" id="WXbuQzpDnIuqzoReg-9i">
    <mxGraphModel dx="1434" dy="781" grid="1" gridSize="10" guides="1" tooltips="1" connect="1" arrows="1" fold="1" page="1" pageScale="1" pageWidth="850" pageHeight="1100" math="0" shadow="0">
      <root>
        <mxCell id="0" />
        <mxCell id="1" parent="0" />
        <mxCell id="b5Y9Q7PvVEEpsIZRozf3-1" value="" style="whiteSpace=wrap;html=1;aspect=fixed;" vertex="1" parent="1">
          <mxGeometry x="50" y="20" width="750" height="750" as="geometry" />
        </mxCell>
        <mxCell id="b5Y9Q7PvVEEpsIZRozf3-17" value="" style="rounded=0;whiteSpace=wrap;html=1;" vertex="1" parent="1">
          <mxGeometry x="60" y="182" width="730" height="240" as="geometry" />
        </mxCell>
        <mxCell id="b5Y9Q7PvVEEpsIZRozf3-2" value="" style="whiteSpace=wrap;html=1;aspect=fixed;" vertex="1" parent="1">
          <mxGeometry x="180" y="300" width="80" height="80" as="geometry" />
        </mxCell>
        <mxCell id="b5Y9Q7PvVEEpsIZRozf3-3" value="" style="whiteSpace=wrap;html=1;aspect=fixed;" vertex="1" parent="1">
          <mxGeometry x="280" y="300" width="80" height="80" as="geometry" />
        </mxCell>
        <mxCell id="b5Y9Q7PvVEEpsIZRozf3-4" value="" style="whiteSpace=wrap;html=1;aspect=fixed;" vertex="1" parent="1">
          <mxGeometry x="590" y="300" width="80" height="80" as="geometry" />
        </mxCell>
        <mxCell id="b5Y9Q7PvVEEpsIZRozf3-5" value="" style="whiteSpace=wrap;html=1;aspect=fixed;" vertex="1" parent="1">
          <mxGeometry x="490" y="300" width="80" height="80" as="geometry" />
        </mxCell>
        <mxCell id="b5Y9Q7PvVEEpsIZRozf3-6" value="" style="whiteSpace=wrap;html=1;aspect=fixed;" vertex="1" parent="1">
          <mxGeometry x="385" y="300" width="80" height="80" as="geometry" />
        </mxCell>
        <mxCell id="b5Y9Q7PvVEEpsIZRozf3-8" value="" style="rounded=0;whiteSpace=wrap;html=1;" vertex="1" parent="1">
          <mxGeometry x="60" y="30" width="730" height="140" as="geometry" />
        </mxCell>
        <mxCell id="b5Y9Q7PvVEEpsIZRozf3-9" value="" style="whiteSpace=wrap;html=1;aspect=fixed;" vertex="1" parent="1">
          <mxGeometry x="160" y="60" width="80" height="80" as="geometry" />
        </mxCell>
        <mxCell id="b5Y9Q7PvVEEpsIZRozf3-10" value="Home" style="rounded=0;whiteSpace=wrap;html=1;" vertex="1" parent="1">
          <mxGeometry x="320" y="85" width="100" height="30" as="geometry" />
        </mxCell>
        <mxCell id="b5Y9Q7PvVEEpsIZRozf3-11" value="About Us" style="rounded=0;whiteSpace=wrap;html=1;" vertex="1" parent="1">
          <mxGeometry x="430" y="85" width="100" height="30" as="geometry" />
        </mxCell>
        <mxCell id="b5Y9Q7PvVEEpsIZRozf3-12" value="Trips" style="rounded=0;whiteSpace=wrap;html=1;" vertex="1" parent="1">
          <mxGeometry x="540" y="85" width="100" height="30" as="geometry" />
        </mxCell>
        <mxCell id="b5Y9Q7PvVEEpsIZRozf3-13" value="Contact Us" style="rounded=0;whiteSpace=wrap;html=1;" vertex="1" parent="1">
          <mxGeometry x="650" y="85" width="100" height="30" as="geometry" />
        </mxCell>
        <mxCell id="b5Y9Q7PvVEEpsIZRozf3-18" value="&lt;h1 style=&quot;margin-top: 0px;&quot;&gt;The Crew&lt;/h1&gt;" style="text;html=1;whiteSpace=wrap;overflow=hidden;rounded=0;" vertex="1" parent="1">
          <mxGeometry x="360" y="190" width="130" height="40" as="geometry" />
        </mxCell>
        <mxCell id="b5Y9Q7PvVEEpsIZRozf3-19" value="Name" style="text;html=1;align=center;verticalAlign=middle;whiteSpace=wrap;rounded=0;" vertex="1" parent="1">
          <mxGeometry x="190" y="380" width="60" height="30" as="geometry" />
        </mxCell>
        <mxCell id="b5Y9Q7PvVEEpsIZRozf3-20" value="Name" style="text;html=1;align=center;verticalAlign=middle;whiteSpace=wrap;rounded=0;" vertex="1" parent="1">
          <mxGeometry x="290" y="380" width="60" height="30" as="geometry" />
        </mxCell>
        <mxCell id="b5Y9Q7PvVEEpsIZRozf3-22" value="Name" style="text;html=1;align=center;verticalAlign=middle;whiteSpace=wrap;rounded=0;" vertex="1" parent="1">
          <mxGeometry x="395" y="380" width="60" height="30" as="geometry" />
        </mxCell>
        <mxCell id="b5Y9Q7PvVEEpsIZRozf3-23" value="Name" style="text;html=1;align=center;verticalAlign=middle;whiteSpace=wrap;rounded=0;" vertex="1" parent="1">
          <mxGeometry x="500" y="380" width="60" height="30" as="geometry" />
        </mxCell>
        <mxCell id="b5Y9Q7PvVEEpsIZRozf3-24" value="Name" style="text;html=1;align=center;verticalAlign=middle;whiteSpace=wrap;rounded=0;" vertex="1" parent="1">
          <mxGeometry x="600" y="380" width="60" height="30" as="geometry" />
        </mxCell>
        <mxCell id="b5Y9Q7PvVEEpsIZRozf3-25" value="" style="rounded=0;whiteSpace=wrap;html=1;" vertex="1" parent="1">
          <mxGeometry x="60" y="440" width="730" height="320" as="geometry" />
        </mxCell>
        <mxCell id="b5Y9Q7PvVEEpsIZRozf3-26" value="" style="rounded=0;whiteSpace=wrap;html=1;" vertex="1" parent="1">
          <mxGeometry x="80" y="470" width="190" height="260" as="geometry" />
        </mxCell>
        <mxCell id="b5Y9Q7PvVEEpsIZRozf3-27" value="Form" style="whiteSpace=wrap;html=1;aspect=fixed;" vertex="1" parent="1">
          <mxGeometry x="295" y="470" width="260" height="260" as="geometry" />
        </mxCell>
        <mxCell id="b5Y9Q7PvVEEpsIZRozf3-28" value="Small Embed Map" style="rounded=0;whiteSpace=wrap;html=1;" vertex="1" parent="1">
          <mxGeometry x="590" y="470" width="180" height="260" as="geometry" />
        </mxCell>
        <mxCell id="b5Y9Q7PvVEEpsIZRozf3-29" value="&lt;h1 style=&quot;margin-top: 0px;&quot;&gt;Company Info&lt;br&gt;&lt;/h1&gt;&lt;p&gt;Phone Number&lt;/p&gt;&lt;p&gt;Email&lt;/p&gt;&lt;p&gt;&lt;br&gt;&lt;/p&gt;" style="text;html=1;whiteSpace=wrap;overflow=hidden;rounded=0;" vertex="1" parent="1">
          <mxGeometry x="90" y="470" width="180" height="250" as="geometry" />
        </mxCell>
        <mxCell id="b5Y9Q7PvVEEpsIZRozf3-30" value="&lt;h1 style=&quot;margin-top: 0px;&quot;&gt;Company Info&lt;br&gt;&lt;/h1&gt;&lt;p&gt;Address&lt;/p&gt;" style="text;html=1;whiteSpace=wrap;overflow=hidden;rounded=0;" vertex="1" parent="1">
          <mxGeometry x="600" y="470" width="170" height="120" as="geometry" />
        </mxCell>
      </root>
    </mxGraphModel>
  </diagram>
</mxfile>
